<mxfile host="Electron" modified="2024-03-15T07:40:39.401Z" agent="Mozilla/5.0 (Windows NT 10.0; Win64; x64) AppleWebKit/537.36 (KHTML, like Gecko) draw.io/24.0.4 Chrome/120.0.6099.109 Electron/28.1.0 Safari/537.36" etag="Fg4jY0dohYTPjqIAdAFz" version="24.0.4" type="device">
  <diagram name="Page-1" id="IanqD3_SmkWAgVqywX5I">
    <mxGraphModel dx="1434" dy="844" grid="1" gridSize="10" guides="1" tooltips="1" connect="1" arrows="1" fold="1" page="1" pageScale="1" pageWidth="850" pageHeight="1100" math="0" shadow="0">
      <root>
        <mxCell id="0" />
        <mxCell id="1" parent="0" />
        <mxCell id="yv3YER2kZeWKxO0u5Ajh-1" value="" style="rounded=0;whiteSpace=wrap;html=1;" parent="1" vertex="1">
          <mxGeometry x="360" y="160" width="850" height="720" as="geometry" />
        </mxCell>
        <mxCell id="yv3YER2kZeWKxO0u5Ajh-5" value="Access&lt;br&gt;Check-in &amp;amp; out info" style="ellipse;whiteSpace=wrap;html=1;" parent="1" vertex="1">
          <mxGeometry x="450" y="530" width="140" height="70" as="geometry" />
        </mxCell>
        <mxCell id="yv3YER2kZeWKxO0u5Ajh-6" value="Chấm công hộ" style="ellipse;whiteSpace=wrap;html=1;" parent="1" vertex="1">
          <mxGeometry x="690" y="530" width="140" height="70" as="geometry" />
        </mxCell>
        <mxCell id="yv3YER2kZeWKxO0u5Ajh-8" value="Login&lt;br&gt;Web Admin" style="ellipse;whiteSpace=wrap;html=1;" parent="1" vertex="1">
          <mxGeometry x="450" y="323" width="140" height="70" as="geometry" />
        </mxCell>
        <mxCell id="yv3YER2kZeWKxO0u5Ajh-9" value="Thống kê số ngày&lt;br&gt;đi làm" style="ellipse;whiteSpace=wrap;html=1;" parent="1" vertex="1">
          <mxGeometry x="690" y="630" width="140" height="70" as="geometry" />
        </mxCell>
        <mxCell id="yv3YER2kZeWKxO0u5Ajh-12" value="Thống kê thời gian làm việc" style="ellipse;whiteSpace=wrap;html=1;" parent="1" vertex="1">
          <mxGeometry x="690" y="730" width="140" height="70" as="geometry" />
        </mxCell>
        <mxCell id="yv3YER2kZeWKxO0u5Ajh-13" value="Thống kê thời gian làm việc trong ngày/tháng" style="ellipse;whiteSpace=wrap;html=1;" parent="1" vertex="1">
          <mxGeometry x="900" y="680" width="160" height="80" as="geometry" />
        </mxCell>
        <mxCell id="yv3YER2kZeWKxO0u5Ajh-14" value="Thống kê thời gian &lt;br&gt;làm việc OT" style="ellipse;whiteSpace=wrap;html=1;" parent="1" vertex="1">
          <mxGeometry x="900" y="780" width="160" height="80" as="geometry" />
        </mxCell>
        <mxCell id="yv3YER2kZeWKxO0u5Ajh-15" value="Director" style="shape=umlActor;verticalLabelPosition=bottom;verticalAlign=top;html=1;" parent="1" vertex="1">
          <mxGeometry x="250" y="460" width="30" height="60" as="geometry" />
        </mxCell>
        <mxCell id="yv3YER2kZeWKxO0u5Ajh-16" value="Manager" style="shape=umlActor;verticalLabelPosition=bottom;verticalAlign=top;html=1;" parent="1" vertex="1">
          <mxGeometry x="250" y="330" width="30" height="60" as="geometry" />
        </mxCell>
        <mxCell id="yv3YER2kZeWKxO0u5Ajh-17" value="Extends" style="endArrow=block;endSize=16;endFill=0;html=1;rounded=0;" parent="1" edge="1">
          <mxGeometry width="160" relative="1" as="geometry">
            <mxPoint x="240" y="495" as="sourcePoint" />
            <mxPoint x="240" y="365" as="targetPoint" />
            <Array as="points">
              <mxPoint x="210" y="495" />
              <mxPoint x="210" y="365" />
            </Array>
          </mxGeometry>
        </mxCell>
        <mxCell id="jf_73KVDMbPNfhMUJd2Z-1" value="&lt;font style=&quot;font-size: 15px;&quot;&gt;Wed-Admin&lt;/font&gt;" style="text;html=1;align=center;verticalAlign=middle;whiteSpace=wrap;rounded=0;" parent="1" vertex="1">
          <mxGeometry x="360" y="170" width="850" height="30" as="geometry" />
        </mxCell>
        <mxCell id="mL-ZsuXqydMdlebYDIuF-1" value="Server" style="shape=umlActor;verticalLabelPosition=bottom;verticalAlign=top;html=1;" vertex="1" parent="1">
          <mxGeometry x="1280" y="423" width="30" height="60" as="geometry" />
        </mxCell>
        <mxCell id="mL-ZsuXqydMdlebYDIuF-2" value="Verify&lt;br&gt;Password" style="ellipse;whiteSpace=wrap;html=1;" vertex="1" parent="1">
          <mxGeometry x="690" y="323" width="140" height="70" as="geometry" />
        </mxCell>
        <mxCell id="mL-ZsuXqydMdlebYDIuF-3" value="Display&lt;br&gt;Login Error" style="ellipse;whiteSpace=wrap;html=1;" vertex="1" parent="1">
          <mxGeometry x="690" y="413" width="140" height="70" as="geometry" />
        </mxCell>
        <mxCell id="mL-ZsuXqydMdlebYDIuF-4" value="" style="shape=ellipse;container=1;horizontal=1;horizontalStack=0;resizeParent=1;resizeParentMax=0;resizeLast=0;html=1;dashed=0;collapsible=0;" vertex="1" parent="1">
          <mxGeometry x="690" y="220" width="140" height="90" as="geometry" />
        </mxCell>
        <mxCell id="mL-ZsuXqydMdlebYDIuF-5" value="Reset Password" style="html=1;strokeColor=none;fillColor=none;align=center;verticalAlign=middle;rotatable=0;whiteSpace=wrap;" vertex="1" parent="mL-ZsuXqydMdlebYDIuF-4">
          <mxGeometry y="7.5" width="140" height="30" as="geometry" />
        </mxCell>
        <mxCell id="mL-ZsuXqydMdlebYDIuF-6" value="" style="line;strokeWidth=1;fillColor=none;rotatable=0;labelPosition=right;points=[];portConstraint=eastwest;dashed=0;resizeWidth=1;" vertex="1" parent="mL-ZsuXqydMdlebYDIuF-4">
          <mxGeometry y="37.5" width="140" height="7.5" as="geometry" />
        </mxCell>
        <mxCell id="mL-ZsuXqydMdlebYDIuF-7" value="When user forgot&lt;br&gt;Password" style="text;html=1;align=center;verticalAlign=middle;rotatable=0;fillColor=none;strokeColor=none;whiteSpace=wrap;" vertex="1" parent="mL-ZsuXqydMdlebYDIuF-4">
          <mxGeometry y="45" width="140" height="37.5" as="geometry" />
        </mxCell>
        <mxCell id="mL-ZsuXqydMdlebYDIuF-9" value="" style="html=1;verticalAlign=bottom;labelBackgroundColor=none;endArrow=open;endFill=0;dashed=1;rounded=0;entryX=0.5;entryY=0;entryDx=0;entryDy=0;exitX=0.032;exitY=0.526;exitDx=0;exitDy=0;exitPerimeter=0;" edge="1" parent="1" source="mL-ZsuXqydMdlebYDIuF-6" target="yv3YER2kZeWKxO0u5Ajh-8">
          <mxGeometry width="160" relative="1" as="geometry">
            <mxPoint x="710" y="430" as="sourcePoint" />
            <mxPoint x="870" y="430" as="targetPoint" />
            <Array as="points">
              <mxPoint x="520" y="261" />
            </Array>
          </mxGeometry>
        </mxCell>
        <mxCell id="mL-ZsuXqydMdlebYDIuF-12" value="&lt;span style=&quot;background-color: rgb(27, 29, 30);&quot;&gt;&amp;lt;&amp;lt;extend&amp;gt;&amp;gt;&lt;/span&gt;" style="edgeLabel;html=1;align=center;verticalAlign=middle;resizable=0;points=[];" vertex="1" connectable="0" parent="mL-ZsuXqydMdlebYDIuF-9">
          <mxGeometry x="-0.3116" y="1" relative="1" as="geometry">
            <mxPoint x="-10" y="-1" as="offset" />
          </mxGeometry>
        </mxCell>
        <mxCell id="mL-ZsuXqydMdlebYDIuF-10" value="" style="html=1;verticalAlign=bottom;labelBackgroundColor=none;endArrow=open;endFill=0;dashed=1;rounded=0;exitX=0;exitY=0.5;exitDx=0;exitDy=0;entryX=0.5;entryY=1;entryDx=0;entryDy=0;" edge="1" parent="1" source="mL-ZsuXqydMdlebYDIuF-3" target="yv3YER2kZeWKxO0u5Ajh-8">
          <mxGeometry x="-0.2195" y="2" width="160" relative="1" as="geometry">
            <mxPoint x="710" y="430" as="sourcePoint" />
            <mxPoint x="870" y="430" as="targetPoint" />
            <Array as="points">
              <mxPoint x="520" y="450" />
            </Array>
            <mxPoint as="offset" />
          </mxGeometry>
        </mxCell>
        <mxCell id="mL-ZsuXqydMdlebYDIuF-11" value="&lt;span style=&quot;background-color: rgb(27, 29, 30);&quot;&gt;&amp;lt;&amp;lt;extend&amp;gt;&amp;gt;&lt;/span&gt;" style="edgeLabel;html=1;align=center;verticalAlign=middle;resizable=0;points=[];" vertex="1" connectable="0" parent="mL-ZsuXqydMdlebYDIuF-10">
          <mxGeometry x="-0.2293" y="2" relative="1" as="geometry">
            <mxPoint x="-1" y="-2" as="offset" />
          </mxGeometry>
        </mxCell>
        <mxCell id="mL-ZsuXqydMdlebYDIuF-13" value="" style="html=1;verticalAlign=bottom;labelBackgroundColor=none;endArrow=open;endFill=0;dashed=1;rounded=0;exitX=1;exitY=0.5;exitDx=0;exitDy=0;entryX=0;entryY=0.5;entryDx=0;entryDy=0;" edge="1" parent="1" source="yv3YER2kZeWKxO0u5Ajh-8" target="mL-ZsuXqydMdlebYDIuF-2">
          <mxGeometry width="160" relative="1" as="geometry">
            <mxPoint x="660" y="380" as="sourcePoint" />
            <mxPoint x="820" y="380" as="targetPoint" />
          </mxGeometry>
        </mxCell>
        <mxCell id="mL-ZsuXqydMdlebYDIuF-14" value="&lt;span style=&quot;background-color: rgb(27, 29, 30);&quot;&gt;&amp;lt;&amp;lt;include&amp;gt;&amp;gt;&lt;/span&gt;" style="edgeLabel;html=1;align=center;verticalAlign=middle;resizable=0;points=[];" vertex="1" connectable="0" parent="mL-ZsuXqydMdlebYDIuF-13">
          <mxGeometry x="-0.0393" relative="1" as="geometry">
            <mxPoint as="offset" />
          </mxGeometry>
        </mxCell>
        <mxCell id="mL-ZsuXqydMdlebYDIuF-16" value="" style="endArrow=none;html=1;rounded=0;exitX=0.5;exitY=0.5;exitDx=0;exitDy=0;exitPerimeter=0;" edge="1" parent="1" source="yv3YER2kZeWKxO0u5Ajh-16">
          <mxGeometry width="50" height="50" relative="1" as="geometry">
            <mxPoint x="760" y="590" as="sourcePoint" />
            <mxPoint x="450" y="360" as="targetPoint" />
          </mxGeometry>
        </mxCell>
        <mxCell id="mL-ZsuXqydMdlebYDIuF-17" value="" style="endArrow=none;html=1;rounded=0;exitX=0.5;exitY=0.5;exitDx=0;exitDy=0;exitPerimeter=0;entryX=0;entryY=0.5;entryDx=0;entryDy=0;" edge="1" parent="1" source="yv3YER2kZeWKxO0u5Ajh-16" target="yv3YER2kZeWKxO0u5Ajh-5">
          <mxGeometry width="50" height="50" relative="1" as="geometry">
            <mxPoint x="275" y="370" as="sourcePoint" />
            <mxPoint x="460" y="368" as="targetPoint" />
            <Array as="points">
              <mxPoint x="410" y="360" />
              <mxPoint x="410" y="565" />
            </Array>
          </mxGeometry>
        </mxCell>
        <mxCell id="mL-ZsuXqydMdlebYDIuF-18" value="" style="endArrow=none;html=1;rounded=0;exitX=0.993;exitY=0.733;exitDx=0;exitDy=0;exitPerimeter=0;entryX=0.5;entryY=0.5;entryDx=0;entryDy=0;entryPerimeter=0;" edge="1" parent="1" source="mL-ZsuXqydMdlebYDIuF-6" target="mL-ZsuXqydMdlebYDIuF-1">
          <mxGeometry width="50" height="50" relative="1" as="geometry">
            <mxPoint x="955" y="360" as="sourcePoint" />
            <mxPoint x="1005" y="310" as="targetPoint" />
            <Array as="points">
              <mxPoint x="1140" y="263" />
              <mxPoint x="1140" y="450" />
            </Array>
          </mxGeometry>
        </mxCell>
        <mxCell id="mL-ZsuXqydMdlebYDIuF-19" value="" style="endArrow=none;html=1;rounded=0;exitX=1;exitY=0.5;exitDx=0;exitDy=0;entryX=0.5;entryY=0.5;entryDx=0;entryDy=0;entryPerimeter=0;" edge="1" parent="1" source="mL-ZsuXqydMdlebYDIuF-2" target="mL-ZsuXqydMdlebYDIuF-1">
          <mxGeometry width="50" height="50" relative="1" as="geometry">
            <mxPoint x="780" y="370" as="sourcePoint" />
            <mxPoint x="830" y="320" as="targetPoint" />
            <Array as="points">
              <mxPoint x="1140" y="360" />
              <mxPoint x="1140" y="450" />
            </Array>
          </mxGeometry>
        </mxCell>
        <mxCell id="mL-ZsuXqydMdlebYDIuF-20" value="" style="endArrow=none;html=1;rounded=0;exitX=1;exitY=0.5;exitDx=0;exitDy=0;entryX=0.5;entryY=0.5;entryDx=0;entryDy=0;entryPerimeter=0;" edge="1" parent="1" source="mL-ZsuXqydMdlebYDIuF-3" target="mL-ZsuXqydMdlebYDIuF-1">
          <mxGeometry width="50" height="50" relative="1" as="geometry">
            <mxPoint x="780" y="370" as="sourcePoint" />
            <mxPoint x="830" y="320" as="targetPoint" />
          </mxGeometry>
        </mxCell>
        <mxCell id="mL-ZsuXqydMdlebYDIuF-21" value="" style="endArrow=block;html=1;rounded=0;align=center;verticalAlign=bottom;endFill=0;labelBackgroundColor=none;endSize=8;entryX=1;entryY=0.5;entryDx=0;entryDy=0;exitX=0;exitY=0.5;exitDx=0;exitDy=0;" edge="1" parent="1" source="yv3YER2kZeWKxO0u5Ajh-12" target="mL-ZsuXqydMdlebYDIuF-31">
          <mxGeometry relative="1" as="geometry">
            <mxPoint x="90" y="650" as="sourcePoint" />
            <mxPoint x="260" y="650" as="targetPoint" />
            <Array as="points">
              <mxPoint x="640" y="765" />
              <mxPoint x="640" y="705" />
            </Array>
          </mxGeometry>
        </mxCell>
        <mxCell id="mL-ZsuXqydMdlebYDIuF-23" value="" style="endArrow=block;html=1;rounded=0;align=center;verticalAlign=bottom;endFill=0;labelBackgroundColor=none;endSize=8;entryX=1;entryY=0.5;entryDx=0;entryDy=0;exitX=0;exitY=0.5;exitDx=0;exitDy=0;" edge="1" parent="1" source="yv3YER2kZeWKxO0u5Ajh-9" target="mL-ZsuXqydMdlebYDIuF-31">
          <mxGeometry relative="1" as="geometry">
            <mxPoint x="100" y="660" as="sourcePoint" />
            <mxPoint x="270" y="660" as="targetPoint" />
            <Array as="points">
              <mxPoint x="640" y="665" />
              <mxPoint x="640" y="705" />
            </Array>
          </mxGeometry>
        </mxCell>
        <mxCell id="mL-ZsuXqydMdlebYDIuF-24" value="" style="endArrow=block;html=1;rounded=0;align=center;verticalAlign=bottom;endFill=0;labelBackgroundColor=none;endSize=8;entryX=1;entryY=0.5;entryDx=0;entryDy=0;exitX=0;exitY=0.5;exitDx=0;exitDy=0;" edge="1" parent="1" source="yv3YER2kZeWKxO0u5Ajh-6" target="yv3YER2kZeWKxO0u5Ajh-5">
          <mxGeometry relative="1" as="geometry">
            <mxPoint x="435" y="640" as="sourcePoint" />
            <mxPoint x="605" y="640" as="targetPoint" />
          </mxGeometry>
        </mxCell>
        <mxCell id="mL-ZsuXqydMdlebYDIuF-25" value="" style="endArrow=block;html=1;rounded=0;align=center;verticalAlign=bottom;endFill=0;labelBackgroundColor=none;endSize=8;entryX=1;entryY=0.5;entryDx=0;entryDy=0;exitX=0;exitY=0.5;exitDx=0;exitDy=0;" edge="1" parent="1" source="yv3YER2kZeWKxO0u5Ajh-13" target="yv3YER2kZeWKxO0u5Ajh-12">
          <mxGeometry relative="1" as="geometry">
            <mxPoint x="660" y="865" as="sourcePoint" />
            <mxPoint x="560" y="665" as="targetPoint" />
            <Array as="points">
              <mxPoint x="860" y="720" />
              <mxPoint x="860" y="765" />
            </Array>
          </mxGeometry>
        </mxCell>
        <mxCell id="mL-ZsuXqydMdlebYDIuF-26" value="" style="endArrow=block;html=1;rounded=0;align=center;verticalAlign=bottom;endFill=0;labelBackgroundColor=none;endSize=8;entryX=1;entryY=0.5;entryDx=0;entryDy=0;exitX=0;exitY=0.5;exitDx=0;exitDy=0;" edge="1" parent="1" source="yv3YER2kZeWKxO0u5Ajh-14" target="yv3YER2kZeWKxO0u5Ajh-12">
          <mxGeometry relative="1" as="geometry">
            <mxPoint x="910" y="815" as="sourcePoint" />
            <mxPoint x="840" y="770" as="targetPoint" />
            <Array as="points">
              <mxPoint x="860" y="820" />
              <mxPoint x="860" y="765" />
            </Array>
          </mxGeometry>
        </mxCell>
        <mxCell id="mL-ZsuXqydMdlebYDIuF-27" value="" style="endArrow=none;html=1;rounded=0;exitX=1;exitY=0.5;exitDx=0;exitDy=0;entryX=0.5;entryY=0.5;entryDx=0;entryDy=0;entryPerimeter=0;" edge="1" parent="1" source="yv3YER2kZeWKxO0u5Ajh-6" target="mL-ZsuXqydMdlebYDIuF-1">
          <mxGeometry width="50" height="50" relative="1" as="geometry">
            <mxPoint x="840" y="458" as="sourcePoint" />
            <mxPoint x="1305" y="463" as="targetPoint" />
            <Array as="points">
              <mxPoint x="1140" y="565" />
              <mxPoint x="1140" y="450" />
            </Array>
          </mxGeometry>
        </mxCell>
        <mxCell id="mL-ZsuXqydMdlebYDIuF-28" value="" style="endArrow=none;html=1;rounded=0;exitX=1;exitY=0.5;exitDx=0;exitDy=0;entryX=0.5;entryY=0.5;entryDx=0;entryDy=0;entryPerimeter=0;" edge="1" parent="1" source="yv3YER2kZeWKxO0u5Ajh-9" target="mL-ZsuXqydMdlebYDIuF-1">
          <mxGeometry width="50" height="50" relative="1" as="geometry">
            <mxPoint x="840" y="575" as="sourcePoint" />
            <mxPoint x="1305" y="463" as="targetPoint" />
            <Array as="points">
              <mxPoint x="1140" y="665" />
              <mxPoint x="1140" y="450" />
            </Array>
          </mxGeometry>
        </mxCell>
        <mxCell id="mL-ZsuXqydMdlebYDIuF-29" value="" style="endArrow=none;html=1;rounded=0;exitX=1;exitY=0.5;exitDx=0;exitDy=0;entryX=0.5;entryY=0.5;entryDx=0;entryDy=0;entryPerimeter=0;" edge="1" parent="1" source="yv3YER2kZeWKxO0u5Ajh-13" target="mL-ZsuXqydMdlebYDIuF-1">
          <mxGeometry width="50" height="50" relative="1" as="geometry">
            <mxPoint x="850" y="585" as="sourcePoint" />
            <mxPoint x="1315" y="473" as="targetPoint" />
            <Array as="points">
              <mxPoint x="1140" y="720" />
              <mxPoint x="1140" y="450" />
            </Array>
          </mxGeometry>
        </mxCell>
        <mxCell id="mL-ZsuXqydMdlebYDIuF-30" value="" style="endArrow=none;html=1;rounded=0;exitX=1;exitY=0.5;exitDx=0;exitDy=0;" edge="1" parent="1" source="yv3YER2kZeWKxO0u5Ajh-14">
          <mxGeometry width="50" height="50" relative="1" as="geometry">
            <mxPoint x="860" y="595" as="sourcePoint" />
            <mxPoint x="1295" y="453" as="targetPoint" />
            <Array as="points">
              <mxPoint x="1140" y="820" />
              <mxPoint x="1140" y="450" />
            </Array>
          </mxGeometry>
        </mxCell>
        <mxCell id="mL-ZsuXqydMdlebYDIuF-31" value="Check working&lt;br&gt;info" style="ellipse;whiteSpace=wrap;html=1;" vertex="1" parent="1">
          <mxGeometry x="450" y="670" width="140" height="70" as="geometry" />
        </mxCell>
        <mxCell id="mL-ZsuXqydMdlebYDIuF-32" value="" style="endArrow=none;html=1;rounded=0;exitX=0.5;exitY=0.5;exitDx=0;exitDy=0;exitPerimeter=0;entryX=0;entryY=0.5;entryDx=0;entryDy=0;" edge="1" parent="1" source="yv3YER2kZeWKxO0u5Ajh-15" target="mL-ZsuXqydMdlebYDIuF-31">
          <mxGeometry width="50" height="50" relative="1" as="geometry">
            <mxPoint x="275" y="370" as="sourcePoint" />
            <mxPoint x="460" y="575" as="targetPoint" />
            <Array as="points">
              <mxPoint x="390" y="490" />
              <mxPoint x="390" y="705" />
            </Array>
          </mxGeometry>
        </mxCell>
      </root>
    </mxGraphModel>
  </diagram>
</mxfile>
